<!--?xml version="1.0" encoding="utf-8"?-->
<!-- Generator: Adobe Illustrator 18.1.1, SVG Export Plug-In . SVG Version: 6.00 Build 0)  -->

<svg version="1.1" width="300" height="150" id="_x31_0" xmlns="http://www.w3.org/2000/svg" xmlns:xlink="http://www.w3.org/1999/xlink" x="0px" y="0px" viewBox="0 0 512 512" style="width: 256px; height: 256px; opacity: 1;" xml:space="preserve">
<style type="text/css">
	.st0{fill:#374149;}
</style>
<g>
	<path class="st0" d="M431.318,0H80.682C69.225,0,59.854,9.371,59.854,20.828v470.344c0,11.457,9.371,20.828,20.828,20.828h350.637
		c11.457,0,20.828-9.371,20.828-20.828V20.828C452.146,9.371,442.775,0,431.318,0z M385.237,47.902
		c7.394,0,13.434,5.992,13.434,13.438c0,7.39-6.039,13.382-13.434,13.382c-7.446,0-13.434-5.992-13.434-13.382
		C371.803,53.894,377.791,47.902,385.237,47.902z M398.67,308.359c0,7.394-6.039,13.43-13.434,13.43
		c-7.446,0-13.434-6.035-13.434-13.43c0-7.449,5.988-13.434,13.434-13.434C392.631,294.926,398.67,300.91,398.67,308.359z
		 M138.17,47.902c7.441,0,13.434,5.992,13.434,13.438c0,7.39-5.993,13.382-13.434,13.382c-7.395,0-13.387-5.992-13.387-13.382
		C124.783,53.894,130.775,47.902,138.17,47.902z M138.17,294.926c7.441,0,13.434,5.985,13.434,13.434
		c0,7.394-5.993,13.43-13.434,13.43c-7.395,0-13.387-6.035-13.387-13.43C124.783,300.91,130.775,294.926,138.17,294.926z
		 M272.506,470.297v0.047H131.557c-16.614,0-30.047-13.434-30.047-30.043v-37.649h40.805v21.188h22.129v-21.188h23.434v20.965
		l-0.004,0.066h0.004v0.157h22.129v-21.188h62.5V470.297z M280.107,359.594c-7.808,12.492-21.297,19.942-36.031,19.942
		c-7.343,0-14.578-1.926-20.984-5.57c-9.84-5.574-16.973-14.687-19.996-25.668c-3.02-10.942-1.559-22.394,4.011-32.285l0.887-1.199
		l10.582-12.481l4.477-5.172c-0.023-0.008-0.047-0.019-0.07-0.023l0.11-0.133c-51.133-14.321-88.57-61.234-88.57-116.95
		c0-67.113,54.359-121.476,121.481-121.476c67.117,0,121.476,54.363,121.476,121.476c0,50.094-30.305,93.102-73.625,111.692
		l-21.66,63.527C281.619,356.883,280.943,358.293,280.107,359.594z M410.49,440.301c0,16.61-13.434,30.043-30.043,30.043h-82.793
		v-67.692H410.49V440.301z" style="fill: rgb(217, 215, 215);"></path>
	<path class="st0" d="M256.002,210.778c16.66,0,30.199-13.539,30.199-30.199c0-16.661-13.539-30.203-30.199-30.203
		c-16.665,0-30.199,13.542-30.199,30.203C225.803,197.238,239.338,210.778,256.002,210.778z" style="fill: rgb(217, 215, 215);"></path>
	<path class="st0" d="M305.779,238.324c1.039-2.293,0.157-5.054-2.031-6.301c-2.187-1.25-5.102-0.523-6.457,1.512
		c-0.625,0.832-1.145,1.61-1.719,2.289l-54.984,64.723l-20.203,23.793c-3.278,6.094-4.062,13.125-2.238,19.843
		c1.926,6.922,6.402,12.649,12.653,16.242c4.062,2.29,8.644,3.492,13.277,3.492c9.321,0,17.86-4.691,22.805-12.601
		c0.16-0.266,0.367-0.626,0.523-1.149l17.805-52.172l19.422-56.969C304.943,240.094,305.362,239.207,305.779,238.324z" style="fill: rgb(217, 215, 215);"></path>
</g>
</svg>
